<svg height="800" width="800" xmlns="http://www.w3.org/2000/svg" viewBox="0 0 511.999 511.999" xml:space="preserve"><path style="fill:#74d6ff" d="M377.086 34.319H101.681C45.824 34.319.544 79.6.544 135.457v275.405c0 55.857 45.281 101.137 101.137 101.137h275.405c55.857 0 101.138-45.281 101.138-101.137V135.457c0-55.857-45.281-101.138-101.138-101.138z"/><path style="fill:#fff" d="M186.582 182.324c-1.993-9.165-9.648-15.089-19.501-15.089-9.599 0-18.693 5.544-23.128 14.045L35.146 378.471c-3.295 5.971-4.035 12.716-2.033 18.502 1.745 5.041 5.391 8.953 10.266 11.015l.282.107c2.292.764 5.055 1.203 7.581 1.203 9.193 0 18.144-5.519 22.783-14.029l23.001-41.212h76.272l8.067 40.022c1.628 8.96 9.383 15.218 18.857 15.218 2.61 0 4.928-.345 7.755-1.153l.23-.073c12.251-4.347 19.96-16.874 17.557-28.489l-39.182-197.258zm-22.196 127.198H121.7l31.286-57.005 11.4 57.005zM438.981 243.41c3.64-20.452-1.038-39.69-13.169-54.171-11.887-14.189-29.483-22.003-49.549-22.003h-59.928c-12.108 0-23.575 9.705-25.559 21.599l-34.8 197.439c-1.178 5.887.201 11.769 3.783 16.138 3.587 4.375 9.077 6.885 15.062 6.885 12.108 0 23.575-9.705 25.554-21.586l12.488-69.478h35.668l.374.122c3.258 1.057 10.021 3.253 15.285 7.104 2.884 2.366 5.738 5.033 7.177 8.482l.049.112c1.124 2.472 2.027 5.62 1.042 11.853-3.159 19.652-3.006 32.238.483 42.006 1.883 5.645 5.263 10.327 10.049 13.916l.174.123c4.128 2.752 9.422 4.33 14.525 4.33 4.28 0 7.401-.942 8.968-1.551 11.701-3.6 19.893-15.946 18.285-27.605l-.029-.184c-1.049-5.593-4.447-10.269-9.457-13.127-.096-3.189.15-8.552 1.748-16.541l.022-.122c2.373-14.233.621-27.567-5.066-38.561l-.077-.143a72.522 72.522 0 0 0-6.784-9.877c18.036-14.229 30.231-34.14 33.682-55.16zm-44.407-1.406c-3.372 17.477-19.997 31.694-37.059 31.694h-36.91l11.01-61.593h37.954c8.087 0 15.135 3.089 19.846 8.699 4.735 5.641 6.564 13.192 5.159 21.2z"/><circle style="fill:#64b9dc" cx="439.455" cy="72" r="72"/><path style="fill:#fff" d="M475.403 63.284h-27.232V36.05a8.716 8.716 0 0 0-8.716-8.716 8.715 8.715 0 0 0-8.716 8.716v27.234h-27.235A8.715 8.715 0 0 0 394.788 72a8.716 8.716 0 0 0 8.716 8.716h27.235v27.234a8.716 8.716 0 0 0 8.716 8.716 8.715 8.715 0 0 0 8.716-8.716V80.715h27.234a8.715 8.715 0 1 0-.002-17.431z"/></svg>